<?xml version="1.0" encoding="iso-8859-1"?>
<!-- Generator: Adobe Illustrator 17.0.1, SVG Export Plug-In . SVG Version: 6.00 Build 0)  -->
<!DOCTYPE svg PUBLIC "-//W3C//DTD SVG 1.1//EN" "http://www.w3.org/Graphics/SVG/1.1/DTD/svg11.dtd">
<svg version="1.1" id="Layer_1" xmlns="http://www.w3.org/2000/svg" xmlns:xlink="http://www.w3.org/1999/xlink" x="0px" y="0px"
	 width="158.333px" height="157.639px" viewBox="0 0 158.333 157.639" style="enable-background:new 0 0 158.333 157.639;"
	 xml:space="preserve">
<g>
	<path style="fill:#C6C6C6;" d="M114.897,31.502h-4.751v10.647c0,2.223-1.802,4.024-4.024,4.024h-3.596
		c-2.223,0-4.024-1.802-4.024-4.024V31.502H82.433v10.647c0,2.223-1.802,4.024-4.024,4.024h-3.596c-2.222,0-4.024-1.802-4.024-4.024
		V31.502H56.351v10.647c0,2.223-1.802,4.024-4.024,4.024h-3.596c-2.222,0-4.024-1.802-4.024-4.024V31.502h-3.353
		c-16.6,0-30.181,13.582-30.181,30.181v37.913c0,16.6,13.582,30.181,30.181,30.181h73.544c16.6,0,30.181-13.582,30.181-30.181
		V61.683C145.078,45.084,131.497,31.502,114.897,31.502z"/>
	<path style="fill:#C6C6C6;" d="M108.672,40.951c0,1.604-1.301,2.905-2.905,2.905h-2.596c-1.604,0-2.905-1.301-2.905-2.905V24.065
		c0-1.604,1.301-2.905,2.905-2.905h2.596c1.604,0,2.905,1.301,2.905,2.905V40.951z"/>
	<path style="fill:#C6C6C6;" d="M80.959,40.951c0,1.604-1.301,2.905-2.905,2.905h-2.596c-1.604,0-2.905-1.301-2.905-2.905V24.065
		c0-1.604,1.301-2.905,2.905-2.905h2.596c1.604,0,2.905,1.301,2.905,2.905V40.951z"/>
	<path style="fill:#C6C6C6;" d="M54.876,40.951c0,1.604-1.301,2.905-2.905,2.905h-2.596c-1.604,0-2.905-1.301-2.905-2.905V24.065
		c0-1.604,1.301-2.905,2.905-2.905h2.596c1.604,0,2.905,1.301,2.905,2.905V40.951z"/>
</g>
</svg>
