<?xml version="1.0" encoding="iso-8859-1"?>
<!-- Generator: Adobe Illustrator 17.0.1, SVG Export Plug-In . SVG Version: 6.00 Build 0)  -->
<!DOCTYPE svg PUBLIC "-//W3C//DTD SVG 1.1//EN" "http://www.w3.org/Graphics/SVG/1.1/DTD/svg11.dtd">
<svg version="1.1" id="Layer_1" xmlns="http://www.w3.org/2000/svg" xmlns:xlink="http://www.w3.org/1999/xlink" x="0px" y="0px"
	 width="175px" height="181px" viewBox="0 0 175 181" style="enable-background:new 0 0 175 181;" xml:space="preserve">
<g>
	<path style="fill:#656565;" d="M50.526,156.844c-4.38-1.002-8.52-3.737-12.343-6.314c-4.375-2.948-6.491-7.363-6.206-12.875
		c0.975-18.88,9.139-33.751,24.501-44.746c2.29-1.639,3.956-1.778,6.571-0.085c16.65,10.785,33.483,10.643,50.124-0.109
		c2.077-1.342,3.486-1.808,5.692-0.271c15.004,10.454,23.292,24.707,25.102,42.907c0.818,8.221-2.746,13.742-9.563,17.649
		c-9.919,5.685-20.905,7.572-32.037,8.775c-4.795,0.518-9.643,0.553-14.467,0.808C87.813,163.016,67,162.622,50.526,156.844z"/>
	<path style="fill:#656565;" d="M124.979,56.74c-0.173,20.567-16.983,37.13-37.428,36.88c-20.276-0.248-36.629-16.939-36.528-37.284
		c0.1-20.357,16.952-37.157,36.937-36.822C108.868,19.863,125.152,36.239,124.979,56.74z"/>
</g>
</svg>
