<?xml version="1.0" encoding="iso-8859-1"?>
<!-- Generator: Adobe Illustrator 17.0.1, SVG Export Plug-In . SVG Version: 6.00 Build 0)  -->
<!DOCTYPE svg PUBLIC "-//W3C//DTD SVG 1.1//EN" "http://www.w3.org/Graphics/SVG/1.1/DTD/svg11.dtd">
<svg version="1.1" id="Layer_1" xmlns="http://www.w3.org/2000/svg" xmlns:xlink="http://www.w3.org/1999/xlink" x="0px" y="0px"
	 width="138px" height="123px" viewBox="0 0 138 123" style="enable-background:new 0 0 138 123;" xml:space="preserve">
<g>
	<path style="fill:#848383;" d="M122.891,37.095c-0.159,1.642-1.633,2.856-3.275,2.697l-92.266-8.927
		c-1.642-0.159-2.856-1.633-2.697-3.275l0.386-3.994c0.159-1.642,1.633-2.856,3.275-2.697l92.266,8.927
		c1.642,0.159,2.856,1.633,2.697,3.275L122.891,37.095z"/>
</g>
<g>
	<path style="fill:#848383;" d="M81.369,30.11c-0.159,1.642-1.633,2.856-3.275,2.697l-10.643-1.03
		c-1.642-0.159-2.856-1.633-2.697-3.275l0.77-7.963c0.159-1.642,1.633-2.856,3.275-2.697l10.643,1.03
		c1.642,0.159,2.856,1.633,2.697,3.275L81.369,30.11z"/>
</g>
<g>
	<path style="fill:#848383;" d="M96.407,44c-1.65,0-3,1.35-3,3v47c0,1.65-1.35,3-3,3h-3.002c-1.65,0-3-1.35-3-3V47
		c0-1.65-1.35-3-3-3h-2.815c-1.65,0-3,1.35-3,3v47c0,1.65-1.35,3-3,3h-3.002c-1.65,0-3-1.35-3-3V47c0-1.65-1.35-3-3-3h-2.815
		c-1.65,0-3,1.35-3,3v47c0,1.65-1.35,3-3,3h-3.002c-1.65,0-3-1.35-3-3V47c0-1.65-1.35-3-3-3h-6.408c-1.65,0-2.804,1.336-2.564,2.968
		l9.127,62.064c0.24,1.632,1.786,2.968,3.436,2.968h44.21c1.65,0,3.196-1.336,3.436-2.968l9.127-62.064
		c0.24-1.632-0.914-2.968-2.564-2.968H96.407z"/>
</g>
</svg>
