<?xml version="1.0" encoding="iso-8859-1"?>
<!-- Generator: Adobe Illustrator 17.0.1, SVG Export Plug-In . SVG Version: 6.00 Build 0)  -->
<!DOCTYPE svg PUBLIC "-//W3C//DTD SVG 1.1//EN" "http://www.w3.org/Graphics/SVG/1.1/DTD/svg11.dtd">
<svg version="1.1" id="Layer_1" xmlns="http://www.w3.org/2000/svg" xmlns:xlink="http://www.w3.org/1999/xlink" x="0px" y="0px"
	 width="158.333px" height="157.639px" viewBox="0 0 158.333 157.639" style="enable-background:new 0 0 158.333 157.639;"
	 xml:space="preserve">
<g>
	<g>
		<g>
			<g>
				<path style="fill:none;stroke:#858484;stroke-width:9;stroke-miterlimit:10;" d="M124.126,122.669H34.207
					c-8.264,0-14.987-6.722-14.987-14.987V49.957c0-8.264,6.723-14.987,14.987-14.987h89.919c8.263,0,14.987,6.722,14.987,14.987
					v57.726C139.113,115.946,132.39,122.669,124.126,122.669z"/>
			</g>
		</g>
	</g>
	<g>
		<path style="fill:#858484;" d="M78.927,88.389L33.365,57.501c-1.776-1.204-2.24-3.621-1.036-5.397
			c1.204-1.776,3.62-2.239,5.396-1.036L78.95,79.016l41.674-27.958c1.781-1.196,4.195-0.72,5.391,1.061
			c1.195,1.782,0.72,4.195-1.062,5.391L78.927,88.389z"/>
	</g>
</g>
</svg>
