<?xml version="1.0" encoding="iso-8859-1"?>
<!-- Generator: Adobe Illustrator 17.0.1, SVG Export Plug-In . SVG Version: 6.00 Build 0)  -->
<!DOCTYPE svg PUBLIC "-//W3C//DTD SVG 1.1//EN" "http://www.w3.org/Graphics/SVG/1.1/DTD/svg11.dtd">
<svg version="1.1" id="Layer_1" xmlns="http://www.w3.org/2000/svg" xmlns:xlink="http://www.w3.org/1999/xlink" x="0px" y="0px"
	 width="138px" height="123px" viewBox="0 0 138 123" style="enable-background:new 0 0 138 123;" xml:space="preserve">
<path style="fill:#848383;" d="M79.907,69.505c0-0.06,0.001-0.119,0.002-0.179c0.029-1.549,0.163-1.699,1.687-1.713
	c2.44-0.022,4.881-0.003,7.321-0.009c1.596-0.004,1.717-0.087,1.967-1.637c0.502-3.113,0.974-6.23,1.441-9.349
	c0.159-1.062-0.081-1.346-1.179-1.352c-2.857-0.017-5.714-0.004-8.571-0.006c-0.417,0-0.834,0.006-1.25-0.012
	c-1.188-0.05-1.389-0.229-1.405-1.447c-0.035-2.649-0.073-5.299,0.006-7.946c0.129-4.32,2.959-7.034,7.401-7.169
	c1.487-0.045,2.976,0.006,4.464-0.019c1.057-0.018,1.315-0.273,1.322-1.339c0.017-2.619,0.006-5.238,0.006-7.857
	c0-0.692-0.166-1.259-0.962-1.367c-4.664-0.637-9.346-1.278-14.004-0.11c-6.031,1.512-9.673,5.439-11.109,11.446
	c-0.409,1.712-0.58,3.454-0.563,5.221c0.028,2.976,0.024,5.952,0,8.928c-0.012,1.488-0.172,1.649-1.646,1.662
	c-2.797,0.025-5.595,0-8.393,0.012c-1.345,0.006-1.554,0.213-1.558,1.559c-0.008,3.095-0.01,6.19,0.001,9.286
	c0.004,1.278,0.224,1.489,1.529,1.494c2.768,0.012,5.536-0.009,8.303,0.01c1.611,0.011,1.761,0.148,1.764,1.724
	c0.013,9.272,0.014,18.543,0.001,27.815h13.428C79.901,87.936,79.904,78.721,79.907,69.505z"/>
<g>
	<path style="fill:#848383;" d="M69,119.5c-31.568,0-57.252-25.684-57.252-57.252S37.432,4.996,69,4.996
		s57.252,25.684,57.252,57.252S100.568,119.5,69,119.5z M69,13.996c-26.606,0-48.252,21.646-48.252,48.252S42.394,110.5,69,110.5
		s48.252-21.646,48.252-48.252S95.606,13.996,69,13.996z"/>
</g>
</svg>
