<?xml version="1.0" encoding="iso-8859-1"?>
<!-- Generator: Adobe Illustrator 17.0.1, SVG Export Plug-In . SVG Version: 6.00 Build 0)  -->
<!DOCTYPE svg PUBLIC "-//W3C//DTD SVG 1.1//EN" "http://www.w3.org/Graphics/SVG/1.1/DTD/svg11.dtd">
<svg version="1.1" id="Layer_1" xmlns="http://www.w3.org/2000/svg" xmlns:xlink="http://www.w3.org/1999/xlink" x="0px" y="0px"
	 width="782px" height="457px" viewBox="0 0 782 457" style="enable-background:new 0 0 782 457;" xml:space="preserve">
<g>
	
		<image style="overflow:visible;opacity:0.37;" width="496" height="181" xlink:href="490812D0.png"  transform="matrix(0.24 0 0 0.24 1353 1286.4126)">
	</image>
	<g>
		
			<radialGradient id="SVGID_1_" cx="1405.5" cy="1306.0952" r="54.0124" gradientTransform="matrix(0.9991 -0.0431 0.0176 0.407 -21.6501 835.123)" gradientUnits="userSpaceOnUse">
			<stop  offset="0" style="stop-color:#FFFFFF"/>
			<stop  offset="0.399" style="stop-color:#FDFDFD"/>
			<stop  offset="0.6329" style="stop-color:#F4F5F5"/>
			<stop  offset="0.8235" style="stop-color:#E6E7E8"/>
			<stop  offset="0.9909" style="stop-color:#D2D4D5"/>
			<stop  offset="1" style="stop-color:#D1D3D4"/>
		</radialGradient>
		<path style="fill:url(#SVGID_1_);" d="M1462,1306.095c0,10.275-9.9,18.683-22,18.683h-69c-12.1,0-22-8.407-22-18.683
			s9.9-18.683,22-18.683h69C1452.1,1287.413,1462,1295.82,1462,1306.095z"/>
	</g>
</g>
<g>
	<path style="fill:#1C75BC;" d="M1533,1306.095c0,10.275-9.9,18.683-22,18.683h-69c-12.1,0-22-8.407-22-18.683s9.9-18.683,22-18.683
		h69C1523.1,1287.413,1533,1295.82,1533,1306.095z"/>
</g>
<linearGradient id="SVGID_2_" gradientUnits="userSpaceOnUse" x1="0" y1="213.5" x2="782" y2="213.5">
	<stop  offset="0" style="stop-color:#FFFFFF"/>
	<stop  offset="0.1364" style="stop-color:#FBFDFE"/>
	<stop  offset="0.2698" style="stop-color:#EFF5FA"/>
	<stop  offset="0.402" style="stop-color:#DCEAF5"/>
	<stop  offset="0.5334" style="stop-color:#C0D9EC"/>
	<stop  offset="0.6644" style="stop-color:#9CC3E2"/>
	<stop  offset="0.7951" style="stop-color:#71A9D5"/>
	<stop  offset="0.9231" style="stop-color:#3E8AC6"/>
	<stop  offset="1" style="stop-color:#1C75BC"/>
</linearGradient>
<path style="fill:url(#SVGID_2_);" d="M782,145.275c-26,29-124,70-258-7s-249,7-249,7l17.288-10.459C68.213,256.766,0,427,0,427V0
	h782V145.275z"/>
<path style="fill:none;stroke:#F7941E;stroke-width:6;stroke-miterlimit:10;" d="M11.811,1173.237c0,0,115-84,249-7s232,36,258,7"/>
<path style="fill:none;stroke:#1C75BC;stroke-width:6;stroke-miterlimit:10;" d="M991.87,369.142c0,0,115-84,249-7s232,36,258,7"/>
<circle style="fill:#FFFFFF;stroke:#F7941E;stroke-width:3;stroke-miterlimit:10;" cx="518.811" cy="1173.237" r="10.459"/>
<circle style="fill:#FFFFFF;stroke:#262262;stroke-width:3;stroke-miterlimit:10;" cx="991.87" cy="369.142" r="10.459"/>
<text transform="matrix(1 0 0 1 1376.1367 1312.8966)" style="fill:#1C75BC; font-family:'Oswald-Regular'; font-size:19.5947;">Login</text>
<text transform="matrix(1 0 0 1 1445 1312.7935)" style="fill:#FFFFFF; font-family:'Oswald-Regular'; font-size:19.5947;">Register</text>
<g>
	<path style="fill:none;stroke:#000000;stroke-width:2;stroke-miterlimit:10;" d="M872,1021.923c0,6.627-5.373,12-12,12h-16
		c-6.627,0-12-5.373-12-12v-15.845c0-6.627,5.373-12,12-12h16c6.627,0,12,5.373,12,12V1021.923z"/>
	<g>
		
			<line style="fill:none;stroke:#000000;stroke-width:2;stroke-miterlimit:10;" x1="841.5" y1="1005.016" x2="862.5" y2="1005.016"/>
		
			<line style="fill:none;stroke:#000000;stroke-width:2;stroke-miterlimit:10;" x1="841.5" y1="1014.103" x2="862.5" y2="1014.103"/>
		
			<line style="fill:none;stroke:#000000;stroke-width:2;stroke-miterlimit:10;" x1="841.5" y1="1023.191" x2="862.5" y2="1023.191"/>
	</g>
</g>
</svg>
