<?xml version="1.0" encoding="iso-8859-1"?>
<!-- Generator: Adobe Illustrator 17.0.1, SVG Export Plug-In . SVG Version: 6.00 Build 0)  -->
<!DOCTYPE svg PUBLIC "-//W3C//DTD SVG 1.1//EN" "http://www.w3.org/Graphics/SVG/1.1/DTD/svg11.dtd">
<svg version="1.1" id="Layer_1" xmlns="http://www.w3.org/2000/svg" xmlns:xlink="http://www.w3.org/1999/xlink" x="0px" y="0px"
	 width="76.351px" height="70.243px" viewBox="0 0 76.351 70.243" style="enable-background:new 0 0 76.351 70.243;"
	 xml:space="preserve">
<g>
	<path style="fill:#646A6D;" d="M21.27,23.946c0,1.1-0.9,2-2,2h-5.459c-1.1,0-2-0.9-2-2v-6.135c0-1.1,0.9-2,2-2h5.459
		c1.1,0,2,0.9,2,2V23.946z"/>
</g>
<g>
	<path style="fill:#646A6D;" d="M65.274,23.946c0,1.1-0.9,2-2,2H30.618c-1.1,0-2-0.9-2-2v-6.135c0-1.1,0.9-2,2-2h32.655
		c1.1,0,2,0.9,2,2V23.946z"/>
</g>
<g>
	<path style="fill:#646A6D;" d="M21.27,38.994c0,1.1-0.9,2-2,2h-5.459c-1.1,0-2-0.9-2-2v-6.135c0-1.1,0.9-2,2-2h5.459
		c1.1,0,2,0.9,2,2V38.994z"/>
</g>
<g>
	<path style="fill:#646A6D;" d="M65.274,38.994c0,1.1-0.9,2-2,2H30.618c-1.1,0-2-0.9-2-2v-6.135c0-1.1,0.9-2,2-2h32.655
		c1.1,0,2,0.9,2,2V38.994z"/>
</g>
<g>
	<path style="fill:#646A6D;" d="M21.27,54.042c0,1.1-0.9,2-2,2h-5.459c-1.1,0-2-0.9-2-2v-6.135c0-1.1,0.9-2,2-2h5.459
		c1.1,0,2,0.9,2,2V54.042z"/>
</g>
<g>
	<path style="fill:#646A6D;" d="M65.274,54.042c0,1.1-0.9,2-2,2H30.618c-1.1,0-2-0.9-2-2v-6.135c0-1.1,0.9-2,2-2h32.655
		c1.1,0,2,0.9,2,2V54.042z"/>
</g>
<g>
	<path style="fill:none;stroke:#646A6D;stroke-miterlimit:10;" d="M72.973,58.189c0,3.85-3.15,7-7,7H11.054c-3.85,0-7-3.15-7-7
		V14.081c0-3.85,3.15-7,7-7h54.919c3.85,0,7,3.15,7,7V58.189z"/>
</g>
</svg>
