<?xml version="1.0" encoding="iso-8859-1"?>
<!-- Generator: Adobe Illustrator 17.0.1, SVG Export Plug-In . SVG Version: 6.00 Build 0)  -->
<!DOCTYPE svg PUBLIC "-//W3C//DTD SVG 1.1//EN" "http://www.w3.org/Graphics/SVG/1.1/DTD/svg11.dtd">
<svg version="1.1" id="Layer_1" xmlns="http://www.w3.org/2000/svg" xmlns:xlink="http://www.w3.org/1999/xlink" x="0px" y="0px"
	 width="76.351px" height="70.243px" viewBox="0 0 76.351 70.243" style="enable-background:new 0 0 76.351 70.243;"
	 xml:space="preserve">
<path style="fill:#646A6D;" d="M64.003,57.001c0,1.1-0.9,2-2,2H14.348c-1.1,0-2-0.9-2-2v-6.135c0-1.1,0.9-2,2-2h47.655
	c1.1,0,2,0.9,2,2V57.001z"/>
<path style="fill:#646A6D;" d="M64.341,44.001c0,1.1-0.9,2-2,2H14.686c-1.1,0-2-0.9-2-2V14.866c0-1.1,0.9-2,2-2h47.655
	c1.1,0,2,0.9,2,2V44.001z"/>
<g>
	<path style="fill:none;stroke:#646A6D;stroke-miterlimit:10;" d="M72.973,57.176c0,3.85-3.15,7-7,7H11.054c-3.85,0-7-3.15-7-7
		V13.068c0-3.85,3.15-7,7-7h54.919c3.85,0,7,3.15,7,7V57.176z"/>
</g>
</svg>
