<?xml version="1.0" encoding="iso-8859-1"?>
<!-- Generator: Adobe Illustrator 17.0.1, SVG Export Plug-In . SVG Version: 6.00 Build 0)  -->
<!DOCTYPE svg PUBLIC "-//W3C//DTD SVG 1.1//EN" "http://www.w3.org/Graphics/SVG/1.1/DTD/svg11.dtd">
<svg version="1.1" id="Layer_1" xmlns="http://www.w3.org/2000/svg" xmlns:xlink="http://www.w3.org/1999/xlink" x="0px" y="0px"
	 width="158.333px" height="157.639px" viewBox="0 0 158.333 157.639" style="enable-background:new 0 0 158.333 157.639;"
	 xml:space="preserve">
<g>
	<path style="fill:#6456A4;" d="M77.852,136.492c-31.07,0-56.347-25.277-56.347-56.348c0-31.069,25.277-56.347,56.347-56.347
		s56.347,25.277,56.347,56.347C134.199,111.214,108.922,136.492,77.852,136.492z M77.852,32.797
		c-26.107,0-47.347,21.239-47.347,47.347s21.24,47.348,47.347,47.348c26.107,0,47.347-21.24,47.347-47.348
		S103.959,32.797,77.852,32.797z"/>
</g>
<path style="fill:#6456A4;" d="M102.725,75.774H82.222V55.271c0-2.413-1.956-4.369-4.369-4.369s-4.369,1.956-4.369,4.369v20.503
	H52.979c-2.413,0-4.369,1.956-4.369,4.369c0,2.413,1.956,4.369,4.369,4.369h20.504v20.504c0,2.413,1.956,4.369,4.369,4.369
	s4.369-1.956,4.369-4.369V84.513h20.503c2.413,0,4.369-1.956,4.369-4.369C107.094,77.73,105.138,75.774,102.725,75.774z"/>
</svg>
