<?xml version="1.0" encoding="iso-8859-1"?>
<!-- Generator: Adobe Illustrator 17.0.1, SVG Export Plug-In . SVG Version: 6.00 Build 0)  -->
<!DOCTYPE svg PUBLIC "-//W3C//DTD SVG 1.1//EN" "http://www.w3.org/Graphics/SVG/1.1/DTD/svg11.dtd">
<svg version="1.1" id="Layer_1" xmlns="http://www.w3.org/2000/svg" xmlns:xlink="http://www.w3.org/1999/xlink" x="0px" y="0px"
	 width="158.333px" height="157.639px" viewBox="0 0 158.333 157.639" style="enable-background:new 0 0 158.333 157.639;"
	 xml:space="preserve">
<g>
	<path style="fill:#858484;" d="M99.797,76.011c-2.129-0.487-4.14-1.816-5.998-3.068c-2.126-1.433-3.154-3.578-3.016-6.257
		c0.474-9.175,4.441-16.403,11.907-21.746c1.113-0.796,1.923-0.864,3.193-0.041c8.092,5.241,16.272,5.172,24.359-0.053
		c1.009-0.652,1.694-0.879,2.766-0.132c7.292,5.08,11.319,12.007,12.199,20.852c0.397,3.995-1.335,6.678-4.648,8.577
		c-4.82,2.763-10.159,3.68-15.569,4.265c-2.33,0.252-4.686,0.269-7.031,0.393C110.027,77.837,105.758,77.375,99.797,76.011z"/>
	<path style="fill:#858484;" d="M135.98,27.363c-0.084,9.995-8.253,18.045-18.189,17.923c-9.854-0.12-17.801-8.232-17.752-18.119
		c0.049-9.893,8.238-18.057,17.951-17.895C128.15,9.442,136.064,17.4,135.98,27.363z"/>
</g>
<path style="fill:#858484;" d="M95.46,82.453c-5.329,9.699-12.598,17.453-22.853,22.109c-2.623,1.191-5.046,0.963-6.689-1.362
	c-3.079-4.358-6.335-3.828-9.932-0.872c-0.254,0.208-0.565,0.346-0.851,0.515c-9.121,5.38-9.125,5.384-1.422,13
	c1.874,1.852,3.544,4.129,6.726,3.601c1.31-0.213,2.69-0.227,3.918-0.667c18.405-6.592,32.175-17.76,40.592-34.109
	C101.778,83.127,96.179,81.146,95.46,82.453z"/>
<path style="fill:#858484;" d="M126.64,86.855c0.007,0.329,0.025,0.654,0.025,0.985c0,26.191-21.308,47.499-47.499,47.499
	S31.667,114.032,31.667,87.84s21.308-47.499,47.499-47.499c3.932,0,7.75,0.489,11.406,1.394c1.472-2.872,3.365-5.491,5.605-7.772
	c-5.371-1.7-11.085-2.622-17.011-2.622c-31.153,0-56.499,25.346-56.499,56.499s25.346,56.499,56.499,56.499
	s56.499-25.346,56.499-56.499c0-1.599-0.083-3.178-0.214-4.744C132.756,84.768,129.794,86.05,126.64,86.855z"/>
</svg>
