<?xml version="1.0" encoding="iso-8859-1"?>
<!-- Generator: Adobe Illustrator 17.0.1, SVG Export Plug-In . SVG Version: 6.00 Build 0)  -->
<!DOCTYPE svg PUBLIC "-//W3C//DTD SVG 1.1//EN" "http://www.w3.org/Graphics/SVG/1.1/DTD/svg11.dtd">
<svg version="1.1" id="Layer_1" xmlns="http://www.w3.org/2000/svg" xmlns:xlink="http://www.w3.org/1999/xlink" x="0px" y="0px"
	 width="158.333px" height="157.639px" viewBox="0 0 158.333 157.639" style="enable-background:new 0 0 158.333 157.639;"
	 xml:space="preserve">
<g>
	<path style="fill:#858484;" d="M55.275,112.245c-3.182,0.528-4.853-1.749-6.726-3.601c-7.704-7.616-7.699-7.621,1.422-13
		c0.286-0.169,0.597-0.307,0.851-0.515c3.597-2.956,6.853-3.486,9.932,0.872c1.643,2.325,4.066,2.553,6.689,1.362
		c10.255-4.656,17.524-12.41,22.853-22.109c1.717-3.125,1.212-6.213-1.721-8.442c-2.767-2.103-2.541-4.334-0.877-6.902
		c0.63-0.972,1.033-2.096,1.701-3.036c1.898-2.672,1.914-7.652,5.413-7.91c3.94-0.291,11.327,11.86,10.121,15.794
		c-7.187,23.431-22.902,38.641-45.738,46.821C57.965,112.018,56.585,112.032,55.275,112.245z"/>
</g>
<circle style="fill:none;stroke:#858484;stroke-width:9;stroke-miterlimit:10;" cx="74.001" cy="80.64" r="51.999"/>
</svg>
