<?xml version="1.0" encoding="iso-8859-1"?>
<!-- Generator: Adobe Illustrator 17.0.1, SVG Export Plug-In . SVG Version: 6.00 Build 0)  -->
<!DOCTYPE svg PUBLIC "-//W3C//DTD SVG 1.1//EN" "http://www.w3.org/Graphics/SVG/1.1/DTD/svg11.dtd">
<svg version="1.1" id="Layer_1" xmlns="http://www.w3.org/2000/svg" xmlns:xlink="http://www.w3.org/1999/xlink" x="0px" y="0px"
	 width="158.333px" height="157.639px" viewBox="0 0 158.333 157.639" style="enable-background:new 0 0 158.333 157.639;"
	 xml:space="preserve">
<g>
	<path style="fill:#858484;" d="M28.361,137.324c1.736-7.898,3.463-15.159,4.844-22.486c0.326-1.731-0.025-3.96-0.894-5.488
		c-11.472-20.163-12.131-40.622-0.25-60.52C44.11,28.649,62.719,19.283,86.175,20.405c28.66,1.372,52.351,25.373,54.281,54.453
		c1.906,28.735-18.163,55.229-46.015,60.917c-13.472,2.751-26.282,1.054-38.656-4.864c-1.486-0.711-3.618-0.876-5.206-0.428
		C43.384,132.513,36.276,134.853,28.361,137.324z M38.093,126.74c4.88-1.543,9.085-2.72,13.173-4.217
		c2.886-1.056,5.253-0.862,8.087,0.617c18.095,9.441,40.42,6.577,55.615-6.871c15.544-13.757,21.097-35.327,14.066-54.643
		c-6.99-19.203-25.099-32.603-45.429-32.915c-19.591-0.301-34.989,8.035-44.793,25.002c-9.882,17.103-9.249,34.616,0.958,51.551
		c1.638,2.717,2.116,5.004,1.281,8.002C39.886,117.446,39.163,121.749,38.093,126.74z"/>
	<path style="fill:#858484;" d="M94.843,108.587c-4.104-1.31-8.484-2.086-12.261-4.03c-11.569-5.956-20.045-15.091-25.584-26.874
		c-2.568-5.464-3.725-11.408-1.875-17.103c1.152-3.548,3.81-6.968,6.632-9.516c3.195-2.885,6.494-1.48,8.053,2.597
		c0.979,2.561,1.684,5.252,2.896,7.693c1.67,3.364,0.97,6.164-1.749,8.31c-2.614,2.063-2.534,4.215-0.655,6.357
		c4.592,5.235,9.307,10.367,14.103,15.417c1.75,1.842,3.665,2.163,5.766-0.042c2.323-2.437,5.155-3.256,8.463-1.483
		c2.407,1.291,5.09,2.066,7.501,3.351c4.153,2.213,4.728,5.379,1.899,9.246C105.332,106.201,101.355,107.83,94.843,108.587z"/>
</g>
</svg>
