<?xml version="1.0" encoding="iso-8859-1"?>
<!-- Generator: Adobe Illustrator 17.0.1, SVG Export Plug-In . SVG Version: 6.00 Build 0)  -->
<!DOCTYPE svg PUBLIC "-//W3C//DTD SVG 1.1//EN" "http://www.w3.org/Graphics/SVG/1.1/DTD/svg11.dtd">
<svg version="1.1" id="Layer_1" xmlns="http://www.w3.org/2000/svg" xmlns:xlink="http://www.w3.org/1999/xlink" x="0px" y="0px"
	 width="138px" height="123px" viewBox="0 0 138 123" style="enable-background:new 0 0 138 123;" xml:space="preserve">
<path style="fill:#838282;" d="M67.791,16.447c-27.183,0-49.299,22.115-49.299,49.299s22.115,49.299,49.299,49.299
	s49.299-22.115,49.299-49.299S94.974,16.447,67.791,16.447z M67.791,104.525c-3.876,0-8.949-7.055-11.775-19.071h23.549
	C76.739,97.47,71.666,104.525,67.791,104.525z M54.314,74.935c-0.279-2.895-0.437-5.959-0.437-9.189c0-1.648,0.044-3.25,0.12-4.813
	h27.588c0.076,1.563,0.12,3.165,0.12,4.813c0,3.23-0.158,6.295-0.437,9.189H54.314z M29.011,65.746c0-1.631,0.113-3.235,0.309-4.813
	h14.145c-0.069,1.58-0.108,3.184-0.108,4.813c0,3.159,0.14,6.225,0.395,9.189H30.121C29.401,71.987,29.011,68.912,29.011,65.746z
	 M67.791,26.966c4.324,0,10.137,8.787,12.658,23.447H55.132C57.652,35.753,63.465,26.966,67.791,26.966z M92.115,60.932h14.023
	v-0.966c0.283,1.886,0.433,3.816,0.433,5.78c0,3.166-0.39,6.242-1.109,9.189H91.828c0.255-2.964,0.395-6.03,0.395-9.189
	C92.223,64.116,92.184,62.513,92.115,60.932z M103.404,50.413H91.106c-1.11-7.327-3.012-13.812-5.523-19.107
	C93.508,35.418,99.844,42.178,103.404,50.413z M49.997,31.307c-2.511,5.295-4.413,11.78-5.523,19.106H32.178
	C35.737,42.178,42.072,35.418,49.997,31.307z M34.412,85.454h10.837c1.134,5.55,2.75,10.515,4.748,14.73
	C43.527,96.827,38.117,91.705,34.412,85.454z M85.583,100.185c1.999-4.215,3.614-9.181,4.749-14.731h10.838
	C97.464,91.706,92.054,96.828,85.583,100.185z"/>
</svg>
